{"title":"Onigamiden 20011 DVDrip English Klam","uid":6800328,"size":1176429785,"categoryP":"video","categoryS":"movies","magnet":"?xt=urn:btih:16f9043b651e6453aa8acdfd52b2384800dfcd9e&amp;dn=Onigamiden+20011+DVDrip+English+Klam&amp;tr=udp%3A%2F%2Ftracker.openbittorrent.com%3A80&amp;tr=udp%3A%2F%2Fopen.demonii.com%3A1337&amp;tr=udp%3A%2F%2Ftracker.coppersurfer.tk%3A6969&amp;tr=udp%3A%2F%2Fexodus.desync.com%3A6969","seeders":0,"leechers":0,"uploader":"Klambake","files":-1,"time":1320626734,"description":"Legend of the Millenium Dragon\n\nWith: Ryuji Aigase, Satomi Ishihara and KentarÃƒÂ´ ItÃƒÂ´\n\nDe jonge Jun is een normale scholier, maar hij heeft op zijn borst een bijzondere moedervlek die de vorm aanneemt van een draak. Door die moedervlek reist hij abrupt door de tijd naar de middeleeuwse tijd van Heian. Die tijd wordt herinnerd om haar vredigheid, maar feitelijk moesten de mensen, onder leiding van een tovenaar en een krijger, vechten tegen demonen. Jun moet nu een legendarische draak doen ontwaken en onder zijn controle krijgen.\n\nA 15-year-old boy goes 1200 years back in time to find his unlikely destiny as the savior to end the war between humans and demons. \n\n------------------ Dutch Friends ------------------\nYou can find my Friends at: http://www.Film-Test.nl \n------ They got my dutch subs ----- and more ------\n\nGeneral:\n\nComplete name                    : Onigamiden\\Legend of the Millenium Dragon.avi\nFormat                           : AVI\nFormat/Info                      : Audio Video Interleave\nFile size                        : 1.10 GiB\nDuration                         : 1h 34mn\nOverall bit rate                 : 1 665 Kbps\n\nVideo:\n\nFormat                           : MPEG-4 Visual\nFormat profile                   : Simple@L3\nFormat settings, BVOP            : No\nFormat settings, QPel            : No\nFormat settings, GMC             : No warppoints\nFormat settings, Matrix          : Default (H.263)\nCodec ID                         : XVID\nCodec ID/Hint                    : XviD\nDuration                         : 1h 34mn\nBit rate                         : 1 271 Kbps\nWidth                            : 720 pixels\nHeight                           : 304 pixels\nDisplay aspect ratio             : 2.35:1\nFrame rate                       : 25.000 fps\nColor space                      : YUV\nChroma subsampling               : 4:2:0\nBit depth                        : 8 bits\nScan type                        : Progressive\nCompression mode                 : Lossy\nBits/(Pixel*Frame)               : 0.232\nStream size                      : 856 MiB (76%)\nWriting library                  : XviD 1.1.2 (UTC 2006-11-01)\n\nAudio:\n\nFormat                           : AC-3\nFormat/Info                      : Audio Coding 3\nMode extension                   : CM (complete main)\nCodec ID                         : 2000\nDuration                         : 1h 34mn\nBit rate mode                    : Constant\nBit rate                         : 384 Kbps\nChannel(s)                       : 6 channels\nChannel positions                : Front: L C R, Side: L R, LFE\nSampling rate                    : 48.0 KHz\nBit depth                        : 16 bits\nCompression mode                 : Lossy\nStream size                      : 259 MiB (23%)\nAlignment                        : Aligned on interleaves\nInterleave, duration             : 32 ms (0.80 video frame)\nInterleave, preload duration     : 192 ms\n","torrent":{"xt":"urn:btih:16f9043b651e6453aa8acdfd52b2384800dfcd9e","amp;dn":"Onigamiden+20011+DVDrip+English+Klam","amp;tr":["udp%3A%2F%2Ftracker.openbittorrent.com%3A80","udp%3A%2F%2Fopen.demonii.com%3A1337","udp%3A%2F%2Ftracker.coppersurfer.tk%3A6969","udp%3A%2F%2Fexodus.desync.com%3A6969"],"infoHash":"16f9043b651e6453aa8acdfd52b2384800dfcd9e","infoHashBuffer":{"type":"Buffer","data":[22,249,4,59,101,30,100,83,170,138,205,253,82,178,56,72,0,223,205,158]},"announce":[],"urlList":[]}}